<svg xmlns="http://www.w3.org/2000/svg" width="145" height="33" viewBox="0 0 145 33" fill="none">
<path d="M46.4355 8.03847C41.9107 8.03847 38.2373 11.6954 38.2373 16.2C38.2373 20.7045 41.9107 24.3615 46.4355 24.3615C49.1339 24.3615 51.5234 23.0627 53.0202 21.0668V23.5617C53.0202 24.006 53.3772 24.3615 53.8235 24.3615C54.2698 24.3615 54.6269 24.006 54.6269 23.5617V16.4187C54.6269 16.3435 54.6269 16.2752 54.6269 16.2C54.6269 11.6954 50.9535 8.03847 46.4287 8.03847H46.4355ZM46.4355 22.762C42.8033 22.762 39.844 19.8228 39.844 16.2C39.844 12.5772 42.7964 9.63796 46.4355 9.63796C50.0746 9.63796 53.0065 12.5635 53.0202 16.1658V16.4119C52.9035 19.9253 49.9991 22.7552 46.4355 22.7552V22.762Z" fill="#03A7E8"/>
<path d="M136.801 8.03847C132.276 8.03847 128.603 11.6954 128.603 16.2C128.603 20.7045 132.276 24.3615 136.801 24.3615C141.326 24.3615 144.999 20.7045 144.999 16.2C144.999 11.6954 141.326 8.03847 136.801 8.03847ZM136.801 22.762C133.169 22.762 130.209 19.8228 130.209 16.2C130.209 12.5772 133.162 9.63796 136.801 9.63796C140.44 9.63796 143.392 12.5772 143.392 16.2C143.392 19.8228 140.44 22.762 136.801 22.762Z" fill="#03A7E8"/>
<path d="M68.9771 9.58327H72.4033C72.8222 9.58327 73.1655 9.24834 73.1655 8.82454C73.1655 8.40074 72.829 8.07264 72.4033 8.07264H68.9771V4.16961C68.9771 3.72531 68.6201 3.36987 68.1738 3.36987C67.7275 3.36987 67.3704 3.72531 67.3704 4.16961V8.07264H59.1516V4.16961C59.1516 3.72531 58.7946 3.36987 58.3483 3.36987C57.902 3.36987 57.5449 3.72531 57.5449 4.16961V18.606C57.5449 21.4769 59.6597 23.8557 62.413 24.3C62.9005 24.3751 63.3331 23.9924 63.3331 23.507C63.3331 23.1174 63.0447 22.7825 62.6602 22.721C62.4405 22.6868 62.2277 22.6321 62.0217 22.5638C60.3601 22.0169 59.1516 20.4516 59.1516 18.6129V9.59011H67.3704V18.6129C67.3704 21.4838 69.4852 23.8625 72.2385 24.3068C72.726 24.382 73.1586 23.9992 73.1586 23.5139C73.1586 23.1174 72.8702 22.7893 72.4789 22.721C72.2866 22.6868 72.1012 22.6458 71.9158 22.5911C70.213 22.0648 68.9771 20.4789 68.9771 18.6129V9.59011V9.58327Z" fill="#03A7E8"/>
<path d="M126.846 9.58328C127.278 9.58328 127.628 9.221 127.601 8.79037C127.58 8.38024 127.21 8.07265 126.798 8.07265H123.42V4.12861C123.42 3.71165 123.083 3.37671 122.664 3.37671H122.575C122.156 3.37671 121.813 3.71165 121.813 4.13544V8.07948H120.083C119.671 8.07948 119.307 8.38708 119.279 8.7972C119.259 9.23467 119.602 9.59012 120.034 9.59012H121.806V18.6129C121.806 21.4838 123.921 23.8625 126.674 24.3068C127.162 24.382 127.594 23.9992 127.594 23.5139C127.594 23.1174 127.306 22.7893 126.914 22.7278C126.626 22.68 126.344 22.6048 126.077 22.4954C124.518 21.8871 123.413 20.3764 123.413 18.6129V9.59012H126.839L126.846 9.58328Z" fill="#03A7E8"/>
<path d="M117.953 16.2C117.548 16.2 117.198 16.5007 117.157 16.904C116.779 20.4311 113.58 23.1311 109.851 22.7141C106.83 22.3792 104.393 19.9526 104.056 16.945C103.617 12.9942 106.72 9.63796 110.6 9.63796C112.44 9.63796 114.101 10.3967 115.296 11.6066C115.612 11.921 116.12 11.9278 116.436 11.6066C116.752 11.2853 116.745 10.7795 116.436 10.465C114.953 8.96125 112.886 8.0248 110.593 8.0248C106.068 8.0248 102.395 11.6818 102.395 16.1863C102.395 20.6909 106.068 24.3478 110.593 24.3478C114.815 24.3478 118.297 21.1693 118.743 17.0749C118.798 16.6033 118.42 16.1863 117.94 16.1863L117.953 16.2Z" fill="#03A7E8"/>
<path d="M99.6896 9.93872C98.2065 8.70834 96.284 7.98379 94.1898 8.04531C90.0014 8.16835 86.5203 11.5109 86.2594 15.6805C85.9641 20.4243 89.7405 24.3615 94.4439 24.3615C96.6548 24.3615 98.6597 23.4865 100.129 22.0716C100.349 21.8597 100.424 21.5384 100.328 21.2514L100.314 21.2035C100.122 20.6567 99.4356 20.5131 99.0236 20.9164C98.6322 21.2924 98.1928 21.6205 97.719 21.8939C96.7578 22.4476 95.6386 22.762 94.4507 22.762C92.947 22.762 91.5669 22.2562 90.4546 21.4086L100.294 11.6134C100.603 11.3058 100.617 10.8068 100.314 10.4992C100.122 10.301 99.9162 10.1164 99.7034 9.93872H99.6896ZM89.2942 20.2876C88.3948 19.1666 87.8523 17.7448 87.8523 16.2C87.8523 12.584 90.8048 9.63796 94.4439 9.63796C95.9956 9.63796 97.4238 10.178 98.5498 11.0734L89.3011 20.2807L89.2942 20.2876Z" fill="#03A7E8"/>
<path d="M84.1929 8.0248C81.4396 8.0248 78.9952 9.36454 77.4778 11.422V8.88606C77.4778 8.45543 77.1482 8.06581 76.7156 8.03847C76.2487 8.01112 75.8711 8.38024 75.8711 8.83821V23.5276C75.8711 23.9172 76.132 24.2726 76.5165 24.341C77.0315 24.4367 77.4778 24.047 77.4778 23.5549V16.3093C77.4778 12.625 80.492 9.62429 84.1929 9.62429C84.4882 9.62429 84.7834 9.64479 85.0718 9.68581C85.3396 9.71998 85.6073 9.61062 85.7721 9.39872L85.7859 9.38505C86.1635 8.90657 85.882 8.18201 85.2778 8.09999C84.9207 8.05214 84.5637 8.0248 84.1929 8.0248Z" fill="#03A7E8"/>
<path d="M16.1836 0C7.24382 0 0 7.21138 0 16.1111C0 25.0108 7.24382 32.2222 16.1836 32.2222C25.1234 32.2222 32.3672 25.0108 32.3672 16.1111C32.3672 7.21138 25.1165 0 16.1836 0ZM11.1163 9.90454C12.5582 8.74252 14.3503 8.12049 16.1767 8.12049C16.8702 8.12049 17.5706 8.20935 18.264 8.39391C18.4082 8.43492 18.5524 8.47593 18.6966 8.52378C18.7241 8.53062 18.7447 8.53745 18.7721 8.55112C18.9026 8.59897 19.0399 8.64682 19.1704 8.69467C19.1841 8.69467 19.2047 8.70834 19.2184 8.71517C19.3489 8.76986 19.4794 8.82454 19.6098 8.88606C19.6098 8.88606 19.6235 8.88606 19.6304 8.8929C19.7609 8.95441 19.8845 9.01593 20.0149 9.08429C20.0355 9.09796 20.0561 9.10479 20.0767 9.11846C20.2003 9.18682 20.317 9.25517 20.4338 9.32353C20.4544 9.3372 20.475 9.35087 20.4956 9.36454C20.6123 9.43973 20.729 9.51492 20.8389 9.59694C20.8526 9.60378 20.8663 9.61745 20.8801 9.62429C20.9968 9.70631 21.1066 9.78834 21.2165 9.8772C21.2165 9.8772 21.2234 9.88403 21.2302 9.89087C21.3401 9.97973 21.4499 10.0686 21.5529 10.1643C21.5667 10.178 21.5873 10.1916 21.601 10.2053C21.704 10.2942 21.8001 10.3899 21.8962 10.4856C21.9168 10.5061 21.9306 10.5197 21.9512 10.5402C22.0473 10.6359 22.1366 10.7385 22.2258 10.8342C22.2464 10.8615 22.267 10.882 22.2876 10.9093C22.3563 10.9914 22.4318 11.0734 22.5005 11.1623C22.5279 11.1964 22.5554 11.2306 22.5829 11.2716C22.6447 11.3537 22.7065 11.4357 22.7683 11.5245C22.7889 11.5587 22.8163 11.5861 22.8369 11.6202C22.9193 11.7364 22.9948 11.8526 23.0704 11.9757C23.0841 11.9962 23.091 12.0167 23.1047 12.0372C23.1665 12.1397 23.2283 12.2423 23.2832 12.3516C23.3038 12.3926 23.3244 12.4336 23.345 12.4747C23.3931 12.5635 23.4411 12.6592 23.4823 12.7549C23.5029 12.7959 23.5167 12.8301 23.5373 12.8711C23.5991 13.001 23.654 13.1309 23.7021 13.2676C23.7639 13.4316 23.6746 13.6162 23.5029 13.664L22.4799 13.9374C22.4799 13.9374 22.4318 13.9443 22.4112 13.9443C22.4112 13.9443 22.3975 13.9443 22.3906 13.9443C22.3632 13.9443 22.3357 13.9443 22.3151 13.9306C22.2945 13.9238 22.267 13.9101 22.2464 13.9033C22.2464 13.9033 22.2396 13.9033 22.2327 13.8964C22.2121 13.8828 22.1915 13.8691 22.1778 13.8486C22.1778 13.8486 22.1778 13.8417 22.1709 13.8349C22.1572 13.8144 22.1366 13.7939 22.1297 13.7666C21.3813 11.9278 19.7952 10.5129 17.8452 9.9934C17.3028 9.84986 16.7466 9.77467 16.1836 9.77467C14.7348 9.77467 13.3547 10.2531 12.2355 11.1281C12.2081 11.1486 12.1875 11.1623 12.16 11.1691C12.16 11.1691 12.16 11.1691 12.1531 11.1691C12.1257 11.1759 12.0982 11.1828 12.0707 11.1828C12.0707 11.1828 12.057 11.1828 12.0501 11.1828C12.0364 11.1828 12.0295 11.1828 12.0158 11.1828C12.009 11.1828 12.0021 11.1828 11.9952 11.1828C11.9815 11.1828 11.9746 11.1828 11.9609 11.1759C11.954 11.1759 11.9472 11.1759 11.9403 11.1691C11.9266 11.1691 11.9197 11.1554 11.906 11.1486C11.906 11.1486 11.8922 11.1486 11.8922 11.1418C11.8785 11.1281 11.8648 11.1212 11.851 11.1076L11.0957 10.3557C10.9722 10.2326 10.9859 10.0276 11.1232 9.91138L11.1163 9.90454ZM13.9521 22.4202L13.6774 23.4387C13.6774 23.4387 13.6568 23.4934 13.6431 23.5207C13.6431 23.5207 13.6362 23.5344 13.6294 23.5344C13.6156 23.5549 13.595 23.5754 13.5744 23.5959C13.5744 23.5959 13.5744 23.5959 13.5676 23.5959C13.547 23.6096 13.5264 23.6232 13.4989 23.6301H13.4852C13.4577 23.6369 13.4303 23.6438 13.4028 23.6438C13.3891 23.6438 13.3753 23.6438 13.3685 23.6438C13.3685 23.6438 13.3547 23.6438 13.3479 23.6438C13.3273 23.6438 13.3067 23.6369 13.2861 23.6301C10.8966 22.7141 9.07022 20.7114 8.39734 18.2164C7.72445 15.7215 8.30121 13.0762 9.9079 11.0939C9.92163 11.0734 9.93536 11.0597 9.95596 11.0461C9.95596 11.0461 9.96969 11.0392 9.97656 11.0324C9.99029 11.0255 9.99716 11.0187 10.0109 11.0119C10.0178 11.0119 10.0246 11.0119 10.0315 11.005C10.0452 11.005 10.0521 10.9982 10.0658 10.9914C10.0727 10.9914 10.0864 10.9914 10.0933 10.9914C10.107 10.9914 10.1208 10.9914 10.1276 10.9914C10.1413 10.9914 10.1482 10.9914 10.1619 10.9914C10.1688 10.9914 10.1757 10.9914 10.1894 10.9914C10.2031 10.9914 10.21 10.9914 10.2237 10.9982C10.2306 10.9982 10.2375 10.9982 10.2443 10.9982C10.2581 10.9982 10.2718 11.0119 10.2787 11.0187C10.2787 11.0187 10.2924 11.0187 10.2993 11.0255C10.3199 11.0392 10.3336 11.0529 10.3473 11.0666L11.0957 11.8116C11.1987 11.9142 11.2193 12.085 11.1232 12.2081C9.90103 13.7734 9.4616 15.8445 9.98343 17.7858C10.5053 19.7271 11.9266 21.306 13.7736 22.0511C13.9109 22.1058 13.9864 22.263 13.9452 22.4065L13.9521 22.4202ZM28.3848 17.4577C28.3779 17.4987 28.3642 17.5397 28.3505 17.5739C28.3505 17.5876 28.3367 17.6012 28.3299 17.6217C28.3161 17.6559 28.2955 17.6901 28.2818 17.7243C28.2749 17.7379 28.2681 17.7516 28.2543 17.7653C28.2269 17.8063 28.1925 17.8541 28.1513 17.8883L17.907 28.0868C17.8658 28.1278 17.8177 28.162 17.7697 28.1962C17.7559 28.2098 17.7353 28.2098 17.7216 28.2235C17.6873 28.244 17.6598 28.2577 17.6255 28.2713C17.6049 28.2782 17.5843 28.285 17.5637 28.2918C17.5294 28.2987 17.5019 28.3124 17.4676 28.3192C17.447 28.3192 17.4195 28.3192 17.3989 28.3192C17.3646 28.3192 17.3371 28.3192 17.3028 28.3192C17.289 28.3192 17.2753 28.3192 17.2684 28.3192C17.2272 28.3192 17.1861 28.3124 17.1517 28.2987C17.138 28.2987 17.1311 28.2987 17.1174 28.2918C17.0693 28.2782 17.0213 28.2645 16.9801 28.244C16.9732 28.244 16.9595 28.2372 16.9526 28.2303C16.9183 28.2098 16.8771 28.1893 16.8427 28.162C16.829 28.1551 16.8221 28.1415 16.8084 28.1346C16.7672 28.1005 16.726 28.0663 16.6917 28.0253C16.6711 27.9979 16.6574 27.9706 16.6368 27.9432C16.623 27.9227 16.6093 27.9022 16.5956 27.8817C16.5818 27.8544 16.575 27.8339 16.5612 27.8065C16.5544 27.786 16.5406 27.7655 16.5338 27.7382C16.5269 27.7108 16.52 27.6835 16.52 27.6562C16.52 27.6356 16.5132 27.6083 16.5063 27.5878C16.5063 27.5605 16.5063 27.5331 16.5063 27.5058C16.5063 27.4853 16.5063 27.4579 16.5063 27.4374C16.5063 27.4101 16.5132 27.3827 16.52 27.3554C16.52 27.3349 16.52 27.3144 16.5338 27.2939C16.5406 27.2665 16.5544 27.2392 16.5612 27.205C16.5681 27.1845 16.575 27.164 16.5818 27.1503C16.5956 27.1162 16.6162 27.0888 16.6299 27.0615C16.6368 27.0478 16.6436 27.0341 16.6574 27.0136C16.6848 26.9726 16.7192 26.9316 16.7603 26.8906L20.729 22.9397C20.729 22.9397 20.7427 22.9192 20.7496 22.9055C20.7496 22.9055 20.7496 22.9055 20.7496 22.8987C20.7496 22.8919 20.7496 22.885 20.7496 22.8714C20.7496 22.8714 20.7496 22.8714 20.7496 22.8645C20.7496 22.8577 20.7427 22.844 20.7359 22.8372C20.7359 22.8372 20.7221 22.8235 20.7153 22.8235C20.7153 22.8235 20.7084 22.8235 20.7015 22.8235C20.7015 22.8235 20.7015 22.8235 20.6947 22.8235C20.6809 22.8235 20.6672 22.8235 20.6603 22.8372C19.3352 23.7121 17.7834 24.1769 16.1973 24.1769C15.7853 24.1769 15.3665 24.1427 14.9477 24.0812C14.776 24.0539 14.6593 23.883 14.7074 23.7121L14.982 22.6868C14.982 22.6868 15.0026 22.6321 15.0163 22.6048C15.0163 22.6048 15.0163 22.6048 15.0163 22.5979C15.0301 22.5774 15.0507 22.5569 15.0713 22.5364C15.0713 22.5364 15.0781 22.5364 15.085 22.5296C15.1056 22.5159 15.1331 22.5022 15.1537 22.4886C15.1537 22.4886 15.1605 22.4886 15.1674 22.4886C15.1949 22.4817 15.2223 22.4749 15.2498 22.4749C15.2635 22.4749 15.2773 22.4749 15.2979 22.4749C15.5931 22.5159 15.8883 22.5364 16.1905 22.5364C17.907 22.5364 19.5137 21.8734 20.729 20.6635C22.1572 19.2417 22.8163 17.2321 22.5417 15.2635C22.5211 15.1131 22.6172 14.9764 22.7614 14.9354L23.7845 14.662C23.7845 14.662 23.8325 14.6552 23.8531 14.6552C23.8668 14.6552 23.8806 14.6552 23.9012 14.6552C23.9012 14.6552 23.908 14.6552 23.9149 14.6552C23.9355 14.6552 23.9492 14.662 23.9698 14.6688C23.9698 14.6688 23.9767 14.6688 23.9836 14.6688C23.9973 14.6688 24.011 14.6825 24.0179 14.6893C24.0179 14.6893 24.0316 14.6962 24.0316 14.703C24.0385 14.7098 24.0522 14.7167 24.0591 14.7235C24.0591 14.7235 24.0728 14.7304 24.0728 14.7372C24.0797 14.744 24.0866 14.7577 24.0934 14.7645C24.0934 14.7645 24.1003 14.7782 24.1072 14.785C24.114 14.7987 24.1209 14.8055 24.1278 14.8192C24.1278 14.8192 24.1278 14.8329 24.1346 14.8397C24.1415 14.8602 24.1484 14.8807 24.1484 14.9012C24.4642 16.8972 24.0042 18.9341 22.885 20.602C22.885 20.6088 22.8713 20.6225 22.8713 20.6293C22.8713 20.6293 22.8713 20.6293 22.8713 20.6362C22.8713 20.6362 22.8713 20.6498 22.8713 20.6567C22.8713 20.6567 22.8713 20.6635 22.8713 20.6703C22.8713 20.6703 22.8713 20.6703 22.8713 20.6772C22.8713 20.6772 22.8712 20.684 22.8781 20.6908C22.8781 20.6908 22.8781 20.6908 22.8781 20.6977C22.8781 20.6977 22.885 20.6977 22.8918 20.7045C22.8918 20.7045 22.8918 20.7045 22.8987 20.7045C22.9056 20.7045 22.9124 20.7045 22.9262 20.7045C22.9262 20.7045 22.9399 20.7045 22.9468 20.7045C22.9468 20.7045 22.9468 20.7045 22.9536 20.7045C22.9605 20.7045 22.9742 20.6977 22.9811 20.684L26.9498 16.7331C26.991 16.6921 27.0322 16.6579 27.0802 16.6238C27.0939 16.6101 27.1145 16.6033 27.1283 16.5964C27.1626 16.5759 27.1901 16.5623 27.2244 16.5417C27.245 16.5349 27.2656 16.5281 27.2862 16.5212C27.3205 16.5076 27.348 16.5007 27.3823 16.4939C27.4029 16.4939 27.4235 16.4871 27.451 16.4802C27.4853 16.4802 27.5128 16.4734 27.5471 16.4734C27.5746 16.4734 27.6089 16.4734 27.6364 16.4734C27.6501 16.4734 27.657 16.4734 27.6707 16.4734C27.7188 16.4734 27.76 16.4871 27.8012 16.5007C27.808 16.5007 27.8149 16.5007 27.8218 16.5076C27.8561 16.5212 27.8904 16.5349 27.9248 16.5486C27.9385 16.5486 27.9522 16.5622 27.9591 16.5691C28.0003 16.5896 28.0346 16.6169 28.0758 16.6443C28.1239 16.6853 28.1582 16.7263 28.1994 16.7673C28.2131 16.781 28.22 16.8015 28.2337 16.8152C28.2543 16.8493 28.2749 16.8767 28.2955 16.9109C28.2955 16.9245 28.3093 16.9382 28.3093 16.9519C28.323 16.986 28.3367 17.0202 28.3505 17.0544C28.3505 17.0681 28.3573 17.0886 28.3642 17.1022C28.3711 17.1364 28.3779 17.1774 28.3779 17.2116C28.3779 17.2253 28.3779 17.239 28.3779 17.2526C28.3779 17.3005 28.3779 17.3552 28.3711 17.403C28.3711 17.4098 28.3711 17.4235 28.3711 17.4303L28.3848 17.4577Z" fill="#03A7E8"/>
</svg>